<?xml version="1.0" encoding="iso-8859-1"?>
<!-- Generator: Adobe Illustrator 19.0.0, SVG Export Plug-In . SVG Version: 6.00 Build 0)  -->
<svg version="1.1" id="Layer_1" xmlns="http://www.w3.org/2000/svg" xmlns:xlink="http://www.w3.org/1999/xlink" x="0px" y="0px"
	 viewBox="0 0 511.998 511.998" style="enable-background:new 0 0 511.998 511.998;" xml:space="preserve">
<path style="fill:#F7B239;" d="M421.003,314.126c11.154-6.015,18.735-17.804,18.735-31.365c0-14.072-8.164-26.234-20.011-32.019
	c4.354-7.947,6.833-17.067,6.833-26.768c0-30.814-24.981-55.795-55.795-55.795c-3.527,0-6.972,0.342-10.317,0.968
	c0.673-2.736,1.038-5.594,1.038-8.538c0-19.669-15.944-35.614-35.614-35.614c-9.002,0-17.219,3.348-23.49,8.856
	c-9.593-16.881-27.725-28.276-48.53-28.276s-38.936,11.395-48.53,28.276c-6.27-5.509-14.486-8.856-23.49-8.856
	c-19.669,0-35.614,15.944-35.614,35.614c0,2.944,0.364,5.801,1.038,8.538c-3.345-0.626-6.79-0.968-10.317-0.968
	c-30.814,0-55.795,24.981-55.795,55.795c0,9.701,2.48,18.821,6.833,26.768c-11.847,5.784-20.011,17.947-20.011,32.019
	c0,13.562,7.581,25.35,18.735,31.365c-11.475,10.011-18.735,24.73-18.735,41.153c0,23.737,15.148,43.926,36.301,51.453
	c-2.519,4.885-3.951,10.422-3.951,16.297c0,19.669,15.944,35.614,35.614,35.614c3.303,0,6.496-0.458,9.53-1.3
	c-0.015,0.432-0.033,0.864-0.033,1.3c0,19.669,15.944,35.614,35.614,35.614c8.235,0,15.811-2.803,21.844-7.495
	c11.713,15.335,30.179,25.237,50.967,25.237c20.787,0,39.253-9.902,50.967-25.237c6.033,4.693,13.609,7.495,21.844,7.495
	c19.669,0,35.614-15.944,35.614-35.614c0-0.436-0.018-0.868-0.033-1.3c3.034,0.84,6.228,1.3,9.53,1.3
	c19.669,0,35.614-15.944,35.614-35.614c0-5.875-1.432-11.412-3.951-16.297c21.152-7.528,36.301-27.717,36.301-51.453
	C439.738,338.855,432.478,324.135,421.003,314.126z"/>
<path style="fill:#E09B2D;" d="M175.257,458.642c0-0.436,0.013-0.868,0.024-1.3c-2.2,0.84-4.515,1.3-6.908,1.3
	c-14.257,0-25.816-15.944-25.816-35.614c0-5.875,1.038-11.412,2.865-16.297c-15.334-7.528-26.315-27.717-26.315-51.452
	c0-16.424,5.264-31.143,13.581-41.154c-8.085-6.015-13.581-17.804-13.581-31.365c0-14.072,5.918-26.235,14.507-32.019
	c-3.157-7.947-4.954-17.067-4.954-26.768c0-30.815,18.108-55.795,40.445-55.795c2.556,0,5.054,0.342,7.479,0.968
	c-0.488-2.736-0.753-5.594-0.753-8.538c0-15.65,7.321-28.933,17.493-33.711c-3.604-1.23-7.468-1.903-11.489-1.903
	c-19.669,0-35.614,15.944-35.614,35.614c0,2.944,0.364,5.801,1.038,8.538c-3.345-0.626-6.79-0.968-10.317-0.968
	c-30.814,0-55.795,24.979-55.795,55.795c0,9.701,2.48,18.821,6.833,26.768c-11.847,5.784-20.011,17.947-20.011,32.019
	c0,13.561,7.581,25.35,18.735,31.365c-11.475,10.011-18.735,24.73-18.735,41.154c0,23.737,15.148,43.925,36.301,51.452
	c-2.519,4.885-3.951,10.422-3.951,16.297c0,19.669,15.944,35.614,35.614,35.614c3.303,0,6.496-0.458,9.53-1.3
	c-0.015,0.432-0.033,0.864-0.033,1.3c0,19.669,15.944,35.614,35.614,35.614c4.068,0,7.973-0.689,11.612-1.947
	C182.531,487.492,175.257,474.244,175.257,458.642z"/>
<polygon style="fill:#CCCCCC;" points="404.776,58.268 395.695,71.385 304.167,203.702 289.518,193.576 290.076,192.769 
	380.286,62.351 390.127,48.13 396.502,52.546 "/>
<polygon style="fill:#B3B3B3;" points="396.502,52.546 387.978,64.856 296.451,197.173 290.076,192.769 380.286,62.351 
	390.127,48.13 "/>
<circle style="fill:#2BA5F7;" cx="412.311" cy="31.72" r="31.72"/>
<path style="fill:#B3B3B3;" d="M404.776,58.268l-9.081,13.118c-3.609-0.89-7.111-2.445-10.34-4.677
	c-1.876-1.294-3.561-2.754-5.069-4.357l9.841-14.222L404.776,58.268z"/>
<path style="fill:#2197D8;" d="M413.88,57.807c-14.407-9.966-18.009-29.724-8.042-44.132c4.115-5.949,9.901-10.049,16.287-12.118
	c-12.988-4.233-27.736,0.309-35.906,12.118c-9.966,14.407-6.365,34.167,8.042,44.132c8.459,5.851,18.761,7.021,27.845,4.077
	C419.251,60.952,416.478,59.603,413.88,57.807z"/>
<polygon style="fill:#CCCCCC;" points="286.028,196.686 277.505,197.458 268.174,198.301 242.437,74.127 239.339,59.158 
	239.327,59.099 256.766,55.49 258.451,63.61 "/>
<g>
	<polygon style="fill:#B3B3B3;" points="277.505,197.458 268.174,198.301 242.437,74.127 239.339,59.158 248.456,57.27 
		250.142,65.39 	"/>
	<path style="fill:#B3B3B3;" d="M258.451,63.61c-4.25,5.235-9.889,8.797-16.014,10.518l-3.11-15.029l17.439-3.609L258.451,63.61z"/>
</g>
<circle style="fill:#2BA5F7;" cx="242.742" cy="31.72" r="31.72"/>
<path style="fill:#2197D8;" d="M244.32,57.807c-14.407-9.966-18.009-29.724-8.042-44.132c4.115-5.949,9.901-10.049,16.287-12.118
	c-12.988-4.233-27.736,0.309-35.906,12.118c-9.966,14.407-6.365,34.167,8.042,44.132c8.459,5.851,18.761,7.021,27.845,4.077
	C249.689,60.952,246.917,59.603,244.32,57.807z"/>
<g>
	<path style="fill:#E09B2D;" d="M329.594,236.341c-0.763-27.813-23.608-50.208-51.603-50.208c-14.321,0-28.124,6.025-37.868,16.531
		c-3.343,3.605-3.133,9.238,0.472,12.582c3.606,3.343,9.239,3.132,12.583-0.474c6.479-6.985,15.291-10.832,24.812-10.832
		c15.942,0,29.336,11.088,32.896,25.954c-1.449-0.146-2.919-0.222-4.405-0.222c-4.918,0-8.903,3.986-8.903,8.903
		s3.985,8.903,8.903,8.903c14.179,0,25.715,11.536,25.715,25.715c0,4.917,3.985,8.903,8.903,8.903c4.918,0,8.903-3.986,8.903-8.903
		C350.005,257.682,341.843,244.05,329.594,236.341z"/>
	<path style="fill:#E09B2D;" d="M238.689,297.297c-11.345-11.09-26.291-17.199-42.183-17.199c-16.127,0-31.288,6.28-42.691,17.683
		c-11.842,11.84-18.272,28.232-17.642,44.973c0.18,4.8,4.129,8.569,8.892,8.569c0.113,0,0.226-0.001,0.341-0.006
		c4.913-0.185,8.747-4.318,8.563-9.231c-0.444-11.806,4.088-23.365,12.439-31.713c8.039-8.04,18.729-12.467,30.099-12.467
		c8.875,0,17.328,2.708,24.437,7.715c-2.022,1.49-3.958,3.147-5.787,4.976c-3.477,3.477-3.477,9.115,0,12.591
		c3.478,3.477,9.115,3.477,12.592,0c12.785-12.786,33.59-12.786,46.374,0c1.739,1.738,4.018,2.608,6.296,2.608
		c2.278,0,4.557-0.869,6.297-2.608c3.477-3.477,3.477-9.115,0-12.591C273.719,297.599,255.352,293.168,238.689,297.297z"/>
</g>
<g>
</g>
<g>
</g>
<g>
</g>
<g>
</g>
<g>
</g>
<g>
</g>
<g>
</g>
<g>
</g>
<g>
</g>
<g>
</g>
<g>
</g>
<g>
</g>
<g>
</g>
<g>
</g>
<g>
</g>
</svg>
